/* XPM */
static const char *helpIcon[] = {
/* columns rows colors chars-per-pixel */
"32 32 138 2 ",
"   c None",
".  c #0A85D9",
"X  c #0A86D9",
"o  c #0B86D9",
"O  c #0B86DA",
"+  c #0C88DA",
"@  c #0C89DA",
"#  c #0D89DB",
"$  c #0E8ADA",
"%  c #0E8BDB",
"&  c #0F8CDC",
"*  c #108EDD",
"=  c #118FDD",
"-  c #1590DA",
";  c #1391DE",
":  c #1491DD",
">  c #1693DC",
",  c #1693DD",
"<  c #1492DE",
"1  c #1594DE",
"2  c #1594DF",
"3  c #1894DB",
"4  c #1D96D9",
"5  c #1B9ADF",
"6  c #2799D7",
"7  c #2098D9",
"8  c #209ADB",
"9  c #209FDE",
"0  c #2999D8",
"q  c #289AD8",
"w  c #2F9DD8",
"e  c #329DD6",
"r  c #309ED8",
"t  c #399FD8",
"y  c #20A0DF",
"u  c #20A1DF",
"i  c #25A2DD",
"p  c #37A0D9",
"a  c #38A9DD",
"s  c #1695E0",
"d  c #1797E0",
"f  c #1797E1",
"g  c #1898E1",
"h  c #1899E1",
"j  c #199AE1",
"k  c #1A9AE0",
"l  c #1A9AE1",
"z  c #1A9BE2",
"x  c #1B9CE2",
"c  c #1A9CE3",
"v  c #1B9DE3",
"b  c #1C9CE0",
"n  c #1D9FE2",
"m  c #1C9EE3",
"M  c #1C9FE4",
"N  c #1CA0E4",
"B  c #1DA0E4",
"V  c #1FA1E4",
"C  c #1FA2E5",
"Z  c #1FA3E5",
"A  c #21A3E2",
"S  c #20A2E3",
"D  c #21A3E3",
"F  c #20A3E5",
"G  c #22A5E5",
"H  c #23A7E5",
"J  c #21A5E6",
"K  c #21A6E6",
"L  c #22A6E6",
"P  c #24A7E5",
"I  c #23A8E7",
"U  c #24A8E4",
"Y  c #24ABE7",
"T  c #28ABE2",
"R  c #24A8E8",
"E  c #24A9E8",
"W  c #24ABE8",
"Q  c #25ABE8",
"!  c #26ACE9",
"~  c #27ADE9",
"^  c #27AEE9",
"/  c #27AEEA",
"(  c #28AFEA",
")  c #29B1EB",
"_  c #2AB1EA",
"`  c #2AB2EB",
"'  c #2CB4EC",
"]  c #2DB5EC",
"[  c #2EB7ED",
"{  c #2FB9ED",
"}  c #2FBAED",
"|  c #2FB8EE",
" . c #30BAEE",
".. c #31BAEF",
"X. c #31BBEF",
"o. c #31BDEE",
"O. c #31BCEF",
"+. c #32BDEE",
"@. c #419FD7",
"#. c #43A9DC",
"$. c #41AFDF",
"%. c #46AEDD",
"&. c #4BA8DA",
"*. c #54AFDD",
"=. c #5AAEDC",
"-. c #4FB2DE",
";. c #65B8DF",
":. c #4BB3E0",
">. c #61BAE1",
",. c #66BBE1",
"<. c #69BBE1",
"1. c #6EB9E0",
"2. c #6FC0E3",
"3. c #70C1E3",
"4. c #7FC1E4",
"5. c #85C6E5",
"6. c #89C3E3",
"7. c #8CC6E5",
"8. c #8CC8E6",
"9. c #8DC8E6",
"0. c #8EC9E6",
"q. c #95CCE8",
"w. c #97CCE8",
"e. c #97CFE8",
"r. c #AAD3EB",
"t. c #AED8ED",
"y. c #BCDCEF",
"u. c #BDDDEF",
"i. c #CBE6F3",
"p. c #D3EBF6",
"a. c #D7EBF6",
"s. c #DBEDF7",
"d. c #E0F0F8",
"f. c #E9F5FA",
"g. c #EFF7FB",
"h. c #F6FBFD",
"j. c #FBFDFE",
"k. c white",
/* pixels */
"                                                                ",
"                                                                ",
"                                                                ",
"                      X.| | ] ] ] ` ` ! !                       ",
"                  +.X.X.| ] ] ] ` ` ( ! ! U E                   ",
"                +.X.X.| ] ] ] ` ` ( ! ! E E I L                 ",
"              +.X.X.| ] ] ] ` ` ( ! ! E E I L L Z               ",
"            +.X.X.| ] ] ] ` ` ( ! ! E E I L L F Z M             ",
"          +.X.X.| ] ] ] ` T $.>.,.-.i L L L F Z Z m v           ",
"        +.X.X.| ] ] ] ` :.p.k.k.k.k.f.;.S F Z Z m v z z         ",
"        X.X.| ] ] ] ` ` 3.k.k.k.k.k.k.j.#.Z Z m v z z d         ",
"      X.X.| ] ] ] ` ` ( 2.g.e.<.5.h.k.k.0.m m v z z z d         ",
"      | | ] ] ] ` ` ( ! %.a P I S t.k.k.e.m v z z z d d 1       ",
"      | ] ] ] ` ` ( ! ! U E I L 9 i.k.k.1.v z z z d d 1 <       ",
"      ] ] ] ` ` ( ! ! E E I L y e.k.k.s.8 z z z d d 1 < ;       ",
"      ] ] ` ` ( ! ! E E I L y 0.k.k.d.p z z g d d 1 < ; =       ",
"      ] ` ` ( ! ! E E I L L *.k.k.a.r z z z d d 1 < ; = =       ",
"      ` ` ( ! ! E E I L L S 0.k.k.&.z z z d d 1 < ; = = &       ",
"      ` ( ! ! E E I L L F Z 4.k.k.e z z d d < < ; = = & %       ",
"      ! ! ! E E I L L F Z Z 8 0 6 4 z d d 1 < ; = = & % %       ",
"      ! ! E E I L L F Z Z m 5 w t 3 d d < < ; = = & % %         ",
"        E E I L L F Z Z m v =.j.k.6.< 1 < ; = = & % % %         ",
"        E I L L F Z Z m v z 7.k.k.u.- < ; = = & % % % O         ",
"          L L F Z Z m v z z 0 r.u.@.< ; = = & % % % O           ",
"            Z Z Z m v z z z d < - < ; = = & % % % O             ",
"              Z m v z z z d d 1 < ; = = & % % % O               ",
"                v z z z d d 1 < ; = = & % % % O                 ",
"                  z d d d 1 < ; = = & % % % O                   ",
"                        1 < ; = = & % %                         ",
"                                                                ",
"                                                                ",
"                                                                "
};
