/* XPM */
static const char *loadIcon[] = {
/* columns rows colors chars-per-pixel */
"32 32 94 2 ",
"   c None",
".  c #0B89DA",
"X  c #0C88DA",
"o  c #0C89DB",
"O  c #0E8CDB",
"+  c #0D8ADC",
"@  c #0E8CDC",
"#  c #0F8DDD",
"$  c #108EDD",
"%  c #118FDE",
"&  c #1191DE",
"*  c #1391DE",
"=  c #1292DF",
"-  c #1393DF",
";  c #1494E0",
":  c #1596E0",
">  c #1698E1",
",  c #1798E1",
"<  c #189AE2",
"1  c #199AE2",
"2  c #1A9CE3",
"3  c #1B9DE3",
"4  c #1C9DE2",
"5  c #1D9EE4",
"6  c #1C9FE4",
"7  c #1F9FE4",
"8  c #1DA0E4",
"9  c #1EA2E5",
"0  c #1FA3E5",
"q  c #20A1E5",
"w  c #20A2E5",
"e  c #20A4E6",
"r  c #21A4E6",
"t  c #22A4E6",
"y  c #22A7E7",
"u  c #23A7E7",
"i  c #24A7E7",
"p  c #22A8E7",
"a  c #23A8E7",
"s  c #24A9E8",
"d  c #25A9E8",
"f  c #25AAE8",
"g  c #24ABE8",
"h  c #25ABE8",
"j  c #25ACE9",
"k  c #27ACE9",
"l  c #26ADE9",
"z  c #27AEEA",
"x  c #29AEEA",
"c  c #29AFEA",
"v  c #27B0EA",
"b  c #2BB1EB",
"n  c #2AB2EB",
"m  c #2DB4EC",
"M  c #2CB5EC",
"N  c #2DB5EC",
"B  c #2EB7ED",
"V  c #30BAEE",
"C  c #30BBEF",
"Z  c #31BCEF",
"A  c #33BEF0",
"S  c #37C2F2",
"D  c #37C3F2",
"F  c #38C4F2",
"G  c #39C5F3",
"H  c #39C7F3",
"J  c #3AC7F3",
"K  c #3BC8F4",
"L  c #3CCAF4",
"P  c #3ECCF5",
"I  c #3ECDF6",
"U  c #3FCEF6",
"Y  c #41D1F7",
"T  c #43D4F8",
"R  c #45D8FA",
"E  c #46D8FA",
"W  c #46D9FA",
"Q  c #48DBFB",
"!  c #4CE1FD",
"~  c #4FE5FF",
"^  c #50E6FF",
"/  c #55E7FE",
"(  c #6EE9F9",
")  c #83EBF5",
"_  c #84EBF5",
"`  c #9FEEF0",
"'  c #BBF1EB",
"]  c #BDF2EA",
"[  c #BFF2EA",
"{  c #A1EFF0",
"}  c #FFF8DE",
"|  c #DAF4E5",
" . c #DBF4E5",
".. c #F5F7E0",
/* pixels */
"                                                                ",
"                                                                ",
"                                                                ",
"                                                                ",
"        ^ ~ ^ ^ ^ ^ ^ ^ ^ ^ ^ ^ ^ ^ ^ ^ ^ ^ ^ ^ ^ ^ ~ ^         ",
"        ~ ^ ^ ^ ^ ^ ^ ^ ^ ^ ^ ^ ^ ^ ^ ^ ^ ^ ^ ^ ^ ^ ^ ~         ",
"        ^ ^ ^ ^ ^ ^ ^ ^ ^ ^ ^ ^ ^ ^ ^ ^ ^ ^ ^ ^ ^ ^ ^ ^         ",
"        ^ ^ ^ ^ ^ ^ ^ ^ ^ ^ ^ ^ ^ ^ / { ' _ ^ ^ ^ ^ ^ ^         ",
"        ^ ^ ^ ^ ^ ^ ^ ^ ^ ^ ^ ^ ^ ^ [ } } } ) ^ ^ ^ ^ ^         ",
"        ^ ^ ^ ^ ^ ^ ^ ^ ^ ^ ^ ^ ^ ^ ..} } } ' ^ ^ ^ ^ ^         ",
"        ^ ^ ^ ^ ^ ^ ^ ^ ^ ^ ^ ^ ^ ^ | } } } ` ^ ^ ^ ^ ^         ",
"        ^ ^ ^ ^ ^ ^ ^ ^ ^ ^ ^ ^ ^ ^ ( | ..[ / ^ ^ ^ ^ ^         ",
"        ^ ^ ^ ^ ^ ^ W C Z Q ^ ^ ^ ^ ^ ^ ^ ^ ^ ^ ^ ^ ^ ^         ",
"        ^ ^ ^ ^ ^ T j j j v W ^ ^ ^ ^ ^ ^ ^ ^ ^ ^ ^ ^ ^         ",
"        ^ ^ ^ ^ Y g g g g g j W ^ ^ ^ ! ! ^ ^ ^ ^ ^ ^ ^         ",
"        ^ ^ ^ P a y y y y y y g W ^ P B B P ^ ^ ^ ^ ^ ^         ",
"        ^ ^ L y y y y y y y y e a D C B B n K ^ ^ ^ ^ ^         ",
"        ^ H 9 9 9 9 9 9 9 9 9 9 9 9 B B B n c H ^ ^ ^ ^         ",
"        A 6 6 6 6 6 6 6 6 6 6 6 6 6 9 n B n c j H ^ ^ ^         ",
"        3 3 3 3 3 3 3 3 3 3 3 3 3 3 3 6 c n c j g H ^ ^         ",
"        1 1 1 1 1 1 1 1 1 1 1 1 1 1 1 1 1 j c j g i D ^         ",
"        , , , , , , , , , , , , , , , , , 1 g j g i y F         ",
"        : : : : : : : : : : : : : : : : : : , y g i y e         ",
"        - - - - - - - - - - - - - - - - - - - : y i y e         ",
"        - - - - - - - - - - - - - - - - - - - - - e y e         ",
"        $ $ $ $ $ $ $ $ $ $ $ $ $ $ $ $ $ $ $ $ $ $ 6 e         ",
"        O @ @ @ @ @ @ @ @ @ @ @ @ @ @ @ @ @ @ @ @ @ @ 4         ",
"        . o o o o o o o o o o o o o o o o o o o o o + -         ",
"                                                                ",
"                                                                ",
"                                                                ",
"                                                                "
};
