/* XPM */
static const char *nextIcon[] = {
/* columns rows colors chars-per-pixel */
"32 32 7 1 ",
"  c #2095F2",
". c #2195F2",
"X c #2195F3",
"o c #2096F2",
"O c #2196F2",
"+ c #2196F3",
"@ c None",
/* pixels */
"@@@@@@@@@@@@@@@@@@@@@@@@@@@@@@@@",
"@@@@@@@@@@@@@@@@@@@@@@@@@@@@@@@@",
"@@@@@@@@@@@@@@@@@@@@@@@@@@@@@@@@",
"@@@@@@@@@@@@@@@@@@@@@@@@@@@@@@@@",
"@@@@@@@@@@o+.@@@@@@@@@@@@@@@@@@@",
"@@@@@@@@@@+++o@@@@@@@@@@@@@@@@@@",
"@@@@@@@@@@++++o@@@@@@@@@@@@@@@@@",
"@@@@@@@@@@@++++o@@@@@@@@@@@@@@@@",
"@@@@@@@@@@@@++++o@@@@@@@@@@@@@@@",
"@@@@@@@@@@@@@++++ @@@@@@@@@@@@@@",
"@@@@@@@@@@@@@@++++ @@@@@@@@@@@@@",
"@@@@@@@@@@@@@@@++++O@@@@@@@@@@@@",
"@@@@@@@@@@@@@@@@++++X@@@@@@@@@@@",
"@@@@@@@@@@@@@@@@@++++X@@@@@@@@@@",
"@@@@@@@@@@@@@@@@@@+++++@@@@@@@@@",
"@@@@@@@@@@@@@@@@@@@++++X@@@@@@@@",
"@@@@@@@@@@@@@@@@@@@O+++X@@@@@@@@",
"@@@@@@@@@@@@@@@@@@O++++@@@@@@@@@",
"@@@@@@@@@@@@@@@@@O+++X@@@@@@@@@@",
"@@@@@@@@@@@@@@@@O+++X@@@@@@@@@@@",
"@@@@@@@@@@@@@@@O+++O@@@@@@@@@@@@",
"@@@@@@@@@@@@@@O+++ @@@@@@@@@@@@@",
"@@@@@@@@@@@@@O+++ @@@@@@@@@@@@@@",
"@@@@@@@@@@@@O+++o@@@@@@@@@@@@@@@",
"@@@@@@@@@@@O+++o@@@@@@@@@@@@@@@@",
"@@@@@@@@@@O+++o@@@@@@@@@@@@@@@@@",
"@@@@@@@@@@+++o@@@@@@@@@@@@@@@@@@",
"@@@@@@@@@@o+.@@@@@@@@@@@@@@@@@@@",
"@@@@@@@@@@@@@@@@@@@@@@@@@@@@@@@@",
"@@@@@@@@@@@@@@@@@@@@@@@@@@@@@@@@",
"@@@@@@@@@@@@@@@@@@@@@@@@@@@@@@@@",
"@@@@@@@@@@@@@@@@@@@@@@@@@@@@@@@@"
};
