/* XPM */
static const char *previousIcon[] = {
/* columns rows colors chars-per-pixel */
"32 32 7 1 ",
"  c #2195F2",
". c #2095F3",
"X c #2195F3",
"o c #2096F2",
"O c #2096F3",
"+ c #2196F3",
"@ c None",
/* pixels */
"@@@@@@@@@@@@@@@@@@@@@@@@@@@@@@@@",
"@@@@@@@@@@@@@@@@@@@@@@@@@@@@@@@@",
"@@@@@@@@@@@@@@@@@@@@@@@@@@@@@@@@",
"@@@@@@@@@@@@@@@@@@@@@@@@@@@@@@@@",
"@@@@@@@@@@@@@@@@@@@+++@@@@@@@@@@",
"@@@@@@@@@@@@@@@@@@o+++@@@@@@@@@@",
"@@@@@@@@@@@@@@@@@O+++ @@@@@@@@@@",
"@@@@@@@@@@@@@@@@O+++ @@@@@@@@@@@",
"@@@@@@@@@@@@@@@.+++ @@@@@@@@@@@@",
"@@@@@@@@@@@@@@O+++ @@@@@@@@@@@@@",
"@@@@@@@@@@@@@O+++ @@@@@@@@@@@@@@",
"@@@@@@@@@@@@X+++ @@@@@@@@@@@@@@@",
"@@@@@@@@@@@X+++ @@@@@@@@@@@@@@@@",
"@@@@@@@@@@X+++ @@@@@@@@@@@@@@@@@",
"@@@@@@@@@++++ @@@@@@@@@@@@@@@@@@",
"@@@@@@@@X+++ @@@@@@@@@@@@@@@@@@@",
"@@@@@@@@X+++X@@@@@@@@@@@@@@@@@@@",
"@@@@@@@@@++++X@@@@@@@@@@@@@@@@@@",
"@@@@@@@@@@X+++X@@@@@@@@@@@@@@@@@",
"@@@@@@@@@@@X+++X@@@@@@@@@@@@@@@@",
"@@@@@@@@@@@@X+++X@@@@@@@@@@@@@@@",
"@@@@@@@@@@@@@O+++X@@@@@@@@@@@@@@",
"@@@@@@@@@@@@@@O+++X@@@@@@@@@@@@@",
"@@@@@@@@@@@@@@@.+++X@@@@@@@@@@@@",
"@@@@@@@@@@@@@@@@O+++X@@@@@@@@@@@",
"@@@@@@@@@@@@@@@@@O+++X@@@@@@@@@@",
"@@@@@@@@@@@@@@@@@@o+++@@@@@@@@@@",
"@@@@@@@@@@@@@@@@@@@+++@@@@@@@@@@",
"@@@@@@@@@@@@@@@@@@@@@@@@@@@@@@@@",
"@@@@@@@@@@@@@@@@@@@@@@@@@@@@@@@@",
"@@@@@@@@@@@@@@@@@@@@@@@@@@@@@@@@",
"@@@@@@@@@@@@@@@@@@@@@@@@@@@@@@@@"
};
