/* XPM */
static const char *quitIcon[] = {
/* columns rows colors chars-per-pixel */
"32 32 38 1 ",
"  c None",
". c #F34235",
"X c #F44235",
"o c #F44335",
"O c #F44236",
"+ c #F44336",
"@ c #F4473B",
"# c #F4473C",
"$ c #F54B3E",
"% c #F54C3F",
"& c #F55246",
"* c #F55448",
"= c #F5564B",
"- c #F6685D",
"; c #F76B62",
": c #F76C63",
"> c #F76F66",
", c #F77169",
"< c #F87D75",
"1 c #F8837C",
"2 c #F8847D",
"3 c #F8857E",
"4 c #F98882",
"5 c #F98A83",
"6 c #F9928D",
"7 c #FAA09C",
"8 c #FAA19D",
"9 c #FCBBB9",
"0 c #FCC4C3",
"q c #FDCFD0",
"w c #FDD4D4",
"e c #FEE3E6",
"r c #FFE5E7",
"t c #FFE6E9",
"y c #FFEAEC",
"u c #FFEAED",
"i c #FFEBED",
"p c #FFEBEE",
/* pixels */
"                                ",
"                                ",
"                                ",
"                                ",
"      +.++++++++++++++++.+      ",
"     ++++++++++++++++++++++     ",
"    ++++++++++++++++++++++++    ",
"    .++++++++++++++++++++++.    ",
"    ++++++++++++++++++++++++    ",
"    ++++++=6++++++++,@++++++    ",
"    +++++=wp7++++++1p9#+++++    ",
"    +++++:rpp7++++3ppp,+++++    ",
"    ++++++;epp7++1ppp4++++++    ",
"    +++++++;epp71ppp4+++++++    ",
"    ++++++++;eppppp4++++++++    ",
"    +++++++++;tppp4+++++++++    ",
"    +++++++++1pppp7+++++++++    ",
"    ++++++++1ppptpp7++++++++    ",
"    +++++++1ppp4;epp7+++++++    ",
"    ++++++1ppp4++;epp7++++++    ",
"    +++++<ppp3++++>rpp4+++++    ",
"    +++++&qp4++++++;e0%+++++    ",
"    ++++++=<++++++++-$++++++    ",
"    ++++++++++++++++++++++++    ",
"    .++++++++++++++++++++++.    ",
"    ++++++++++++++++++++++++    ",
"     ++++++++++++++++++++++     ",
"      +.++++++++++++++++.+      ",
"                                ",
"                                ",
"                                ",
"                                "
};
