/* XPM */
static const char *readTimeIcon[] = {
/* columns rows colors chars-per-pixel */
"32 32 133 2 ",
"   c #17183E",
".  c #17193E",
"X  c #17183F",
"o  c #17193F",
"O  c #18183E",
"+  c #18193E",
"@  c #18183F",
"#  c #18193F",
"$  c #191A40",
"%  c #191A41",
"&  c #1A1B41",
"*  c #1C1D43",
"=  c #1C1D45",
"-  c #1E1F45",
";  c #1E2046",
":  c #21224A",
">  c #21234A",
",  c #22244A",
"<  c #23254C",
"1  c #24254D",
"2  c #26274F",
"3  c #26284F",
"4  c #272951",
"5  c #2A2C53",
"6  c #2A2D54",
"7  c #2B2D55",
"8  c #2C2D56",
"9  c #2C2E56",
"0  c #2C2F56",
"q  c #2E3058",
"w  c #2E3159",
"e  c #2F325A",
"r  c #30335A",
"t  c #31345C",
"y  c #343760",
"u  c #363961",
"i  c #373961",
"p  c #373963",
"a  c #373A62",
"s  c #373B63",
"d  c #383B64",
"f  c #3D416A",
"g  c #3E416B",
"h  c #3F426B",
"j  c #40436C",
"k  c #40446D",
"l  c #41446E",
"z  c #42456E",
"x  c #42446F",
"c  c #424670",
"v  c #434670",
"b  c #434771",
"n  c #454973",
"m  c #464A74",
"M  c #474A74",
"N  c #4A4E78",
"B  c #4B4F79",
"V  c #4D507C",
"C  c #4E537E",
"Z  c #4F547F",
"A  c #505580",
"S  c #515580",
"D  c #535682",
"F  c #545884",
"G  c #555A85",
"H  c #5C618D",
"J  c #5C638D",
"K  c #5D628E",
"L  c #606692",
"P  c #636895",
"I  c #626995",
"U  c #646995",
"Y  c #646996",
"T  c #656A97",
"R  c #646B97",
"E  c #696E9B",
"W  c #686E9C",
"Q  c #696F9C",
"!  c #6A6F9D",
"~  c #6A709E",
"^  c #6C729F",
"/  c #6C72A0",
"(  c #6D72A0",
")  c #6E74A1",
"_  c #6E75A2",
"`  c #7178A5",
"'  c #7278A6",
"]  c #7379A8",
"[  c #747AA8",
"{  c #757BAA",
"}  c #757CAA",
"|  c #757DAA",
" . c #767DAB",
".. c #777DAC",
"X. c #787FAE",
"o. c #7A81AF",
"O. c #7B82B1",
"+. c #7C83B2",
"@. c #7E84B4",
"#. c #8087B5",
"$. c #8087B7",
"%. c #8188B8",
"&. c #8289B9",
"*. c #868EBE",
"=. c #868FBE",
"-. c #8990C0",
";. c #8991C1",
":. c #8A92C2",
">. c #8B92C3",
",. c #8D95C6",
"<. c #8E96C7",
"1. c #8F97C7",
"2. c #9097C8",
"3. c #9199C9",
"4. c #929ACB",
"5. c #959DCE",
"6. c #959DCF",
"7. c #969ECF",
"8. c #979FD1",
"9. c #97A0D1",
"0. c #98A0D2",
"q. c #99A2D4",
"w. c #9CA4D6",
"e. c #9CA5D6",
"r. c #9DA6D8",
"t. c #9EA7D8",
"y. c #9EA7D9",
"u. c #9EA7DA",
"i. c #9EA8D9",
"p. c #9FA8D9",
"a. c #9EA8DA",
"s. c #9FA8DA",
"d. c None",
/* pixels */
"d.d.d.d.d.d.d.d.d.d.d.d.d.d.d.d.d.d.d.d.d.d.d.d.d.d.d.d.d.d.d.d.",
"d.d.d.d.d.d.d.d.d.d.d.d.d.d.d.d.d.d.d.d.d.d.d.d.d.d.d.d.d.d.d.d.",
"d.d.d.d.d.d.d.d.d.d.d.d.d.d.d.d.d.d.d.d.d.d.d.d.d.d.d.d.d.d.d.d.",
"d.d.d.d.d.d.d.d.d.d.d.d.d.d.d.d.d.d.d.d.d.d.d.d.d.d.d.d.d.d.d.d.",
"d.d.d.d.d.d.d.d.d.d.d.d.d.d.d.d.d.d.d.d.d.d.d.d.d.d.d.d.d.d.d.d.",
"d.d.d.d.d.. # # # # # # # # # # # # # # # # # # # # . d.d.d.d.d.",
"d.d.d.+ # # # # # # # # # # # # # # # # # # # # # # # # + d.d.d.",
"d.d.X # O d.d.d.d.d.d.d.d.d.d.d.d.d.d.d.d.d.d.d.d.d.d.@ # X d.d.",
"d.O # o d.d.d.d.d.d.d.d.d.d.d.d.d.d.d.d.d.d.d.d.d.d.d.d.. # O d.",
"d.d.X d.d.d.d.d.i.p.p.p.p.p.p.p.p.p.p.p.p.p.p.p.p.p.p.p.#.= 9 d.",
"d.d.d.d.d.d.i.s.s.s.s.s.s.s.s.s.s.s.s.s.s.s.s.s.s.s.s.s.s.s.a.d.",
"d.d.d.d.@ A t.s.s...C S @.s.s.s.s.s.s.&.D D &.s.s.t./ V H 6.s.s.",
"d.d.  # # # N s.U # # # $ ( s.p s s.} & # # & | s.N # # # 4 6.i.",
"d.d.# d.d.i # :.3 9 1.,.3 8 s.s d s.e 1 >.:.< r ;.# v 8.~ # K s.",
"d.@ # d.d.I # [ L +.s.s.a : s.s.s.s.& b s.s.b & [ # ` s.r.# M s.",
"d.# # d.d.T # ' s.X.Z u # B s.s.s.s.# n s.s.n # ' # ' s.s.# n s.",
"d.+ # d.d.J # X.E # # 1 C 9.s.-.;.s.- g s.s.f ; X.# ^ s.0.# B s.",
"d.d.# O d.< - 5.0 - R ' ' *.s.> , s.j & K H & l 5.- 5 ! x # ) s.",
"d.d.o # # * ` s.> # # # # 2 s.P Y s.,.q # # w <.s.` - # # B t.s.",
"d.d.d.d.d.2.s.s.=.' ' ' ' =.s.s.s.s.s.w.$.$.e.s.s.s.5.o.:.s.s.s.",
"d.d.d.d.d.p.s.s.s.s.s.s.s.s.s.s.s.s.s.s.s.s.s.s.s.s.s.s.s.O.8.s.",
"d.o # d.d.p.s.s.s.s.s.s.s.s.s.s.s.s.s.s.s.s.s.s.s.s.s.s.{ # C s.",
"d.d.# O d.p.s.s.s.s.s.s.s.s.s.s.s.s.s.s.s.s.s.s.s.s.s.7.r # Q s.",
"d.d.+ # X y t z s.r.G n n n n n n n n n m $.s.W 6 c l > # e q.i.",
"d.d.d.  # # # # s.4.% # # # # # # # # # # Z s.7 # # # # h 3.s.u.",
"d.d.d.d.d.d.# # s.s.%.' ' ' ' ' ' ' ' ' ] 8.s.c # F  .,.s.s.a.d.",
"d.d.d.d.d.d.  * i.p.p.p.p.p.p.p.p.p.p.p.p.p.p.k # _ p.p.y.a.d.d.",
"d.d.d.d.d.d.d.d.d.d.d.d.d.d.d.d.d.d.d.d.d.d.d.d.d.d.d.d.d.d.d.d.",
"d.d.d.d.d.d.d.d.d.d.d.d.d.d.d.d.d.d.d.d.d.d.d.d.d.d.d.d.d.d.d.d.",
"d.d.d.d.d.d.d.d.d.d.d.d.d.d.d.d.d.d.d.d.d.d.d.d.d.d.d.d.d.d.d.d.",
"d.d.d.d.d.d.d.d.d.d.d.d.d.d.d.d.d.d.d.d.d.d.d.d.d.d.d.d.d.d.d.d.",
"d.d.d.d.d.d.d.d.d.d.d.d.d.d.d.d.d.d.d.d.d.d.d.d.d.d.d.d.d.d.d.d."
};
