/* XPM */
static const char *searchClockIcon[] = {
/* columns rows colors chars-per-pixel */
"64 64 72 1 ",
"  c #525D6A",
". c #55616E",
"X c #576371",
"o c #596674",
"O c #5B6977",
"+ c #5F6D7A",
"@ c #636E7A",
"# c #65717E",
"$ c #6A737F",
"% c #81735E",
"& c #D89537",
"* c #D89638",
"= c #E99C31",
"- c #EBB05F",
"; c #EBB160",
": c #677481",
"> c #6A7582",
", c #6F7A86",
"< c #6D7D8A",
"1 c #727B86",
"2 c #747E89",
"3 c #75818C",
"4 c #79838D",
"5 c #7B8591",
"6 c #7E8995",
"7 c #808A95",
"8 c #858D98",
"9 c #83949E",
"0 c #8D959F",
"q c #8495A0",
"w c #8A9CA6",
"e c #8B9DA8",
"r c #959CA5",
"t c #989EA8",
"y c #92A5AE",
"u c #9EA3AC",
"i c #96AAB4",
"p c #9AADB6",
"a c #A0A6AF",
"s c #A2A7B1",
"d c #A5ABB3",
"f c #AEB3BB",
"g c #B1B6BD",
"h c #B3B8BF",
"j c #B6BAC2",
"k c #B9BDC3",
"l c #AFC5CD",
"z c #BAC0C6",
"x c #B1C7CF",
"c c #B1C8CF",
"v c #B5CBD3",
"b c #C2C6CC",
"n c #C5C9CF",
"m c #C8CACF",
"M c #C7CAD1",
"N c #C8CAD1",
"B c #CED0D5",
"V c #D3D5DA",
"C c #D6D8DD",
"Z c #D9DADF",
"A c #DADCE0",
"S c #DEE0E4",
"D c #DDF6FC",
"F c #DDF9FF",
"G c #E6E7EB",
"H c #E8E7EB",
"J c #EBEAEE",
"K c #EDEDF1",
"L c #F0EFF3",
"P c #E1FAFF",
"I c #F4F3F6",
"U c None",
/* pixels */
"UUUUUUUUUUUUUUUUUUUUUUUUUUUUUUUUUUUUUUUUUUUUUUUUUUUUUUUUUUUUUUUU",
"UUUUUUUUUUUUUUPPPPPPPPPPPPPPFFFFPPPPPPPPPPPPPPPPPPUUUUUUUUUUUUUU",
"UUUUUUUUUUUUUPPPPPPPPPPPPPFPFFFFFPPPFPFPPPPPPPPPPPPUUUUUUUUUUUUU",
"UUUUUUUUUUUUUPPPPPPPPPPFPFFFFFFFFFFFFPFFFPPPPPPPPPPUUUUUUUUUUUUU",
"UUUUUUUUUUUUUPPPPPPPFFFDFFFFFFFFFFFFFFFFFFFFPPPPPPPUUUUUUUUUUUUU",
"UUUUUUUUUUUUUUPPPFFFFFFDFFFFFFFFFFFFFFFFFFFFFFFPPPUUUUUUUUUUUUUU",
"UUUUUUUUUUUUUUUUUUUUUUDDFFFFFFFFFFFFFFFFFFFUUUUUUUUUUUUUUUUUUUUU",
"UUUUUUUUUUUUUUUUUUUUUUUDFFFFFFFFFFFFFFFFFFFUUUUUUUUUUUUUUUUUUUUU",
"UUUUUUUUUUUUUUU                                  UUUUUUUUUUUUUUU",
"UUUUUUUUUUUUU                                     #cPPPPPPPPPPUU",
"UUUUUUUUUUU                                         yFPPPPPPPPPU",
"UUUUPPPPPPy               4dkCHIKJvjp3.              yPPPPPPPPPU",
"UUUPPPPPPc             2gJIIIIIIIIIIIIKj$             vFPPPPPPPU",
"UUUPPPPPD#         . 2mILIIIIII66IIIIIIILb1           #DPPPPPPUU",
"UUUPPPPFl  .       XgLIIIIIIIIIOOIIIIIIILIIfX          xPPPUUUUU",
"UUUPPPPF9         $ZIIkkIIIIIIIoOIIIIIIIkkIIC$  .   .  qFPUUUUUU",
"UUUUPPPF:   .    2GIII@OVIIIIII66IIIIIIV+#IIIJ4    .   >FFUUUUUU",
"UUUUUUUU. .  .  2KIIIIdO6IIIIIIIIIIIIII6odIIIIJ2. . . .oFFPUUUUU",
"UUUUUUUU . .. .>KIIIIIK,1IIIIIIIIIIIIII1>JIIIIIH>  . . .FFPPPPPU",
"UUUUUUUU. .  .oCIIIIIILKLIIIIIIIIIIIIIIKLIIIIIIIZo. . . FPFPPPPP",
"UUUUUUUU......fIIIIIIIIIIIIIIIIIIIIIIIIIIIIIIIIIIf......FFFFPPPP",
"UUUUUUUU.  ..2IIIIIIIIIIIIIIIIIIIIIIIIIIIIIIIIIIII1.. . FFFPPPPP",
"UUUUUUUU.....nIk@sJIIIIIIIIIIIIIIIIIIIIIIIIIIH4orIb.. ..FFFFPPPP",
"UUUUUUUU.. .2IIkoX,KIIIIIIIIIIIIIIIIIIIIIIIIhooorII1....FFFFPFPU",
"UUUUUUUU....jIIIV5,KIIIIIIIIIIIIIIIIIIIIIIC4XX+jIIIj....UUUUUUUU",
"UUUPFFFF...oJIIIIIIIII52VIIIIIIIIIIIIIIIGrXX#jIIIIIHo...UUUUUUUU",
"UUFFFFFFX..6IIIIIIIIII4XXsKIIIIIIIIIIILf+.XuKIIIIIII5.X.UUUUUUUU",
"UPPFFFFF...dIIIIIIIIIIKuXX,NIIIIIIIIIn>X.8SIIIIIIIIId..XUUUUUUUU",
"UPFFFFFFX..nIIIIIIIIIIIIV1XXrKI--IIZ7 X,NIIIIIIIIIIIb...UUUUUUUU",
"UPPFFFFFXXXZIIIIIIIIIIIIIKuXX>0==utXX@fIIIIIIIIIIIIIZXXXUUUUUUUU",
"UPFPFFFFXXXHIIIIIIIIIIIIIIIV,.%==%.XrGIIIIIIIIIIIIIIHX.XUUUUUUUU",
"UUFFFFFFX.XII4. 4IIIIIIIIIIIKo&==&oZIIIIIIIIIII4..4ILXXXUUUUUUUU",
"UUUFFFFFXXXLI3..4IIIIIIIIIIII#*==&#IIIIIIIIIIII4 .7LLXXXFFFFUUUU",
"UUUUUUUUXXXHIIIIIIIIIIIIIIIIIs%==%sIIIIIIIIIIIIIIIIIHXXXFFFFFUUU",
"UUUUUUUUXXXAIIIIIIIIIIIIIIIIIIs==aLIIIIIIIIIIIIIIIIIZoXXFFFDFUUU",
"UUUUUUUUoXXnIIIIIIIIIIIIIIIIIII==IIIIIIIIIIIIIIIIIIIbXXXFFFFFUUU",
"UUUUUUUUXXXdIIIIIIIIIIIIIIIIIII==IIIIIIIIIIIIIIIIIIIdXXoFFFFFUUU",
"UUUUUUUUooo7IIIIIIIIIIIIIIIIIII==IIIIIIIIIIIIIIIIIII7XXoFFFFUUUU",
"UUUUUUUUXoX+JIIIIIIIIIIIIIIIIII==IIIIIIIIIIIIIIIIIIJ@XXXUUUUUUUU",
"UUUUUUUUOXoXkIIIV3@KIIIIIIIIIII==IIIIIIIIIIIK@2VIIIhXXooUUUUUUUU",
"UUUUUUUUXooX3IIj  @KIIIIIIIIIII==IIIIIIIIIIIK$  jII3ooooUUUUUUUU",
"UUUUUUUUoooooMIkouJIIIIIIIIIIII==IIIIIIIIIIIIJuXjIMoXoooUUUUUUUU",
"UUUUUUUUooooO3LIIIIIIIIIIIIIIII==IIIIIIIIIIIIIIIIL3oooooUUUUUUUU",
"UUUUUUUUoooOoofIIIIIIIIIIIIIIII==IIIIIIIIIIIIIIIIfooooooFFPPPPUU",
"UUUUPFFFoooooo+ZIIIIIIIKJIIIIII==IIIIIIJJIIIIIIIAOoOOoooFFPPPPPU",
"UUUPPPPFOXooooo1HIIIIIJ@#IIIIII==IIIIII$#JIIIIIH<oooooooFFPPPPPP",
"UUUPPPPF+OOoOOoo4KIIIIa 2IIIIII==IIIIII2 aIIIIJ4OoOooOo#PFPPPPPP",
"UUUPPPPF<OooOooX@4HIIIX VIIIIII==IIIIIIC XIIIJ7oooOooOo<PPPPPPPP",
"UUUPPPPPwOoOOOoOoO<AIIzjIIIIIII==IIIIIIIjjIIC<OoOOOoooOwFFPPPPPU",
"UUUUPPPPvoOOoOOOOOo+gLIIIIIIIII==IIIIIIIIIIf+OOOOoOOOOOvPPPPPPUU",
"UUUUUUUUUOoOoOoOOOOOO3MIIIIIIII==IIIIIIIIM3OoOOOOOoOOO,FPPPUUUUU",
"UUUUUUUUUUOOOOOOOOOOOOO3jJIIIII-;IIIIIJj4OOOOOOOOOOOO+vPPPUUUUUU",
"UUUUUUUUUUo+OOOOOOOOOOOOO+6fvAJILJAvf6+OOOOOOOOOOOOOOpPPPPUUUUUU",
"UUUUUUUUUUUiOOOOOOOOOOOOOOOOO+OOOOO+OOOOOOOOOOOOOOOOpPPPPPPUUUUU",
"UUPPPPPPPPPPv<OOOOOO+OOOOOOOOOOOOOOOOOOOOOOOOOOOOO<vPPPPPPPPPPUU",
"UPPPPPPPPPPPPFve3#O+OOOOO+OOOOOOOOOOOO+OO+OOOO#3evDFPPPPPPPPPPPU",
"PPPPPPPPPPPPPPPPFPFFFFFFFFFFFFFFFFFFFFFFFFFFFPFPPPPPPPPPPPPPPPPP",
"PPPPPPPPPPPPPPPPPFPFFFFFFFFFFFFFFFFFFFFFPPFFFFFPPPPPPPPPPPPPPPPP",
"PPPPPPPPPPPPPPPPPPPPPFFPFFFFFFFFFFFFFFFFPPPPPPPPPPPPPPPPPPPPPPPP",
"PPPPPPPPPPPPPPPPPPPPPPPFFFFFFFFFFFFFFFFFPPPPPPPPPPPPPPPPPPPPPPPP",
"UPPPPPPPPPPPPPPPPPPPPPPPFFFFFPFPFFPFFFFFPPPPPPPPPPPPPPPPPPPPPPPU",
"UUPPPPPPPPPPPPPPPPPPPPPPFFFFPPPPPPPPFFFFPPPPPPPPPPPPPPPPPPPPPPUU",
"UUUUUUUUUUUUUUUUUUUUUUUUUUUUUUUUUUUUUUUUUUUUUUUUUUUUUUUUUUUUUUUU",
"UUUUUUUUUUUUUUUUUUUUUUUUUUUUUUUUUUUUUUUUUUUUUUUUUUUUUUUUUUUUUUUU"
};
