/* XPM */
static const char *zoomOutIcon[] = {
/* columns rows colors chars-per-pixel */
"32 32 114 2 ",
"   c None",
".  c #36404D",
"X  c #748593",
"o  c #7D8FA0",
"O  c #7D8FA1",
"+  c #7C90A0",
"@  c #7D90A1",
"#  c #7E90A1",
"$  c #7E91A1",
"%  c #7C90A2",
"&  c #7D91A2",
"*  c #7E90A2",
"=  c #7E91A2",
"-  c #7F93A2",
";  c #7E92A3",
":  c #7F92A3",
">  c #7E93A4",
",  c #7F93A4",
"<  c #7F92A5",
"1  c #7F93A5",
"2  c #7F94A4",
"3  c #7F95A4",
"4  c #8093A3",
"5  c #8193A3",
"6  c #8092A4",
"7  c #8193A4",
"8  c #8093A5",
"9  c #8193A5",
"0  c #8193A6",
"q  c #8194A4",
"w  c #8094A5",
"e  c #8095A5",
"r  c #8195A5",
"t  c #8095A6",
"y  c #8195A6",
"u  c #8094A7",
"i  c #8095A7",
"p  c #8195A7",
"a  c #8096A6",
"s  c #8196A7",
"d  c #8296A6",
"f  c #8396A6",
"g  c #8296A7",
"h  c #8297A7",
"j  c #8499A9",
"k  c #8699A8",
"l  c #8499AA",
"z  c #8499AB",
"x  c #8698AB",
"c  c #889DAF",
"v  c #899DB0",
"b  c #8EA4B5",
"n  c #8EA4B6",
"m  c #90A5B7",
"M  c #95A8B7",
"N  c #92A7B9",
"B  c #92A8BA",
"V  c #93A8BA",
"C  c #93A9BA",
"Z  c #94ABBB",
"A  c #96ABBD",
"S  c #97ADBE",
"D  c #99AEBF",
"F  c #A1B4C1",
"G  c #A2B6C4",
"H  c #A5B7C5",
"J  c #A3B8C5",
"K  c #A5B8C6",
"L  c #A0B6C8",
"P  c #A0B7C8",
"I  c #A1B8C9",
"U  c #A1B8CA",
"Y  c #A3BBCB",
"T  c #A7BBC8",
"R  c #A5BDCE",
"E  c #A8BAC8",
"W  c #AABCCA",
"Q  c #AABECC",
"!  c #ABBECC",
"~  c #ABBFCC",
"^  c #ADC0CE",
"/  c #AFC2CF",
"(  c #AFC2D0",
")  c #AEC5D8",
"_  c #ADC6D8",
"`  c #AFC7DA",
"'  c #AFC8D9",
"]  c #B1C3D1",
"[  c #B1C4D1",
"{  c #B2C5D2",
"}  c #B3C6D3",
"|  c #B6C9D6",
" . c #B0C8D9",
".. c #B3CCDE",
"X. c #B4CDDE",
"o. c #B9D2E4",
"O. c #B9D3E4",
"+. c #BAD4E5",
"@. c #BBD4E6",
"#. c #BCD7E7",
"$. c #BCD6E8",
"%. c #BDD6E8",
"&. c #BCD7E8",
"*. c #BED8EA",
"=. c #C1DCEE",
"-. c #C3DDEF",
";. c #C8E3F5",
":. c #CCE7F9",
">. c #CDE9FB",
",. c #CEEAFC",
"<. c #CFEAFD",
"1. c #CFEBFD",
"2. c #D0ECFE",
"3. c #D1EDFF",
/* pixels */
"                                                                ",
"                                  e 8 v V b j 8 -               ",
"                              1 N *.3.3.3.3.3.:._ e 2           ",
"                            e #.3.3.3.3.3.3.3.3.3.,.L 1         ",
"                          e ;.3.3.3.3.3.3.3.3.3.3.3.3._ 8       ",
"                        1 -.3.3.3.3.3.3.3.3.3.3.3.3.3.3.L 8     ",
"                        R 3.3.3.3.3.3.3.3.3.3.3.3.3.3.3.,.e     ",
"                      8 ,.3.3.3.3.3.3.3.3.3.3.3.3.3.3.3.3.' 1   ",
"                      Z 3.3.3.3.3.3.3.3.3.3.3.3.3.3.3.3.3.:.e   ",
"                       .3.3.3.3.3.3.3.3.3.3.3.3.3.3.3.3.3.3.j   ",
"                    e +.3.3.3.3.X X X X X X X X X D 3.3.3.3.b   ",
"                    e $.3.3.3.3.. . . . . . . . . X 3.3.3.3.V   ",
"                    - X.3.3.3.3.3.3.3.3.3.3.3.3.3.3.3.3.3.3.c   ",
"                      U 3.3.3.3.3.3.3.3.3.3.3.3.3.3.3.3.3.3.e   ",
"                      j 3.3.3.3.3.3.3.3.3.3.3.3.3.3.3.3.3.$.e   ",
"                      8 O.3.3.3.3.3.3.3.3.3.3.3.3.3.3.3.3.m     ",
"                        j ,.3.3.3.3.3.3.3.3.3.3.3.3.3.3.+.1     ",
"                        - A 3.3.3.3.3.3.3.3.3.3.3.3.3.;.e       ",
"                      - F M S ,.3.3.3.3.3.3.3.3.3.3.-.e         ",
"                    O J | G - j O.3.3.3.3.3.3.3.>.U 2           ",
"                  O H | K -     e j U ..$.O._ V e               ",
"                - T | E -             - e e                     ",
"              - ! | W -                                         ",
"            - ! | ! -                                           ",
"          - / | / -                                             ",
"        5 / | ( -                                               ",
"      e ] | { 8                                                 ",
"    e { | ] 8                                                   ",
"  5 { | { e                                                     ",
"  j | { e                                                       ",
"  - j 8                                                         ",
"                                                                "
};
