/* XPM */
static const char *zoomInIcon[] = {
/* columns rows colors chars-per-pixel */
"32 32 95 2 ",
"   c None",
".  c #36404C",
"X  c #36404D",
"o  c #4F5C68",
"O  c #748593",
"+  c #8B9FAF",
"@  c #8FA1B1",
"#  c #8DA2B1",
"$  c #8DA4B3",
"%  c #8EA2B4",
"&  c #8FA3B4",
"*  c #8EA5B4",
"=  c #8FA4B7",
"-  c #90A4B3",
";  c #91A4B3",
":  c #92A6B5",
">  c #93A6B5",
",  c #90A5B7",
"<  c #94A7B6",
"1  c #95A7B7",
"2  c #91A6B8",
"3  c #90A7B8",
"4  c #96A9B8",
"5  c #96A9B9",
"6  c #97ABB9",
"7  c #94A9BA",
"8  c #95ABBB",
"9  c #95AABC",
"0  c #95ABBC",
"q  c #96AABC",
"w  c #97ABBD",
"e  c #96ACBE",
"r  c #97AEBE",
"t  c #96AEBF",
"y  c #97AEBF",
"u  c #9AADBC",
"i  c #9BAFBC",
"p  c #98ADBF",
"a  c #99AEBF",
"s  c #9CAEBD",
"d  c #9CAFBE",
"f  c #9FB2BF",
"g  c #98AFC0",
"h  c #9CB3C3",
"j  c #9DB4C5",
"k  c #9FB5C4",
"l  c #A1B4C2",
"z  c #A3B5C3",
"x  c #A3B6C5",
"c  c #A3B7C5",
"v  c #A4B5C4",
"b  c #A0B6C9",
"n  c #A0B7C9",
"m  c #A2B8CB",
"M  c #A3BACB",
"N  c #A4BBCD",
"B  c #A4BDCE",
"V  c #A5BECF",
"C  c #AAC2D3",
"Z  c #AAC3D4",
"A  c #ABC3D4",
"S  c #AAC3D5",
"D  c #ABC3D5",
"F  c #ABC4D4",
"G  c #ABC4D5",
"H  c #ACC4D5",
"J  c #AFC7D9",
"K  c #AEC8DA",
"L  c #B4C7D4",
"P  c #B4C8D5",
"I  c #B5C9D5",
"U  c #B6C8D5",
"Y  c #B5C9D6",
"T  c #B6C9D6",
"R  c #B0C8DA",
"E  c #B1CADB",
"W  c #B7D0E2",
"Q  c #BBD5E7",
"!  c #BBD6E7",
"~  c #BCD5E8",
"^  c #BDD6E8",
"/  c #BED7E9",
"(  c #BDD8E9",
")  c #C1DBEC",
"_  c #C2DCED",
"`  c #C7E2F4",
"'  c #C8E2F4",
"]  c #C8E3F4",
"[  c #C8E4F5",
"{  c #CEE9FB",
"}  c #CFEAFD",
"|  c #CFEBFD",
" . c #D0ECFE",
".. c #D0EDFF",
"X. c #D1EDFF",
/* pixels */
"                                                                ",
"                                  g N R Q W H b 2               ",
"                              p ~ ..............| G *           ",
"                            V ......................] 9         ",
"                          S ..........................{ 5       ",
"                        j ..............................] *     ",
"                      $ [ ..............O p ..............C     ",
"                      M ................X O ..............| 2   ",
"                      ( ................X O ................b   ",
"                    & ..................X O ................S   ",
"                    9 ..........O O O O X o O O O p ........W   ",
"                    e ..........X X X X X X X X X O ........Q   ",
"                    2 ..................X O ................K   ",
"                      ] ................X O ................N   ",
"                      G ................X O ................e   ",
"                      9 ................X O ..............~     ",
"                        R ................................e     ",
"                        @ ) ............................V       ",
"                      @ L j _ ........................S         ",
"                    ; T T T & J ..................[ h           ",
"                  : T T T ;     9 S ` ........~ M               ",
"                < T T T :             : e 5 *                   ",
"              5 T T T <                                         ",
"            5 T T T 5                                           ",
"          d T T T 5                                             ",
"        f T T T d                                               ",
"      l T T T d                                                 ",
"    l T T T f                                                   ",
"  p T T T l                                                     ",
"  c T T v                                                       ",
"  + c p                                                         ",
"                                                                "
};
